<?xml version="1.0" encoding="utf-8"?>
<!-- Generator: Adobe Illustrator 21.0.2, SVG Export Plug-In . SVG Version: 6.00 Build 0)  -->
<svg version="1.1" id="Layer_1" xmlns="http://www.w3.org/2000/svg" xmlns:xlink="http://www.w3.org/1999/xlink" x="0px" y="0px"
	 viewBox="0 0 792 612" style="enable-background:new 0 0 792 612;" xml:space="preserve">
<style type="text/css">
	.st0{fill:#12002A;}
	.st1{fill:#330055;}
	.st2{fill:#12002A;stroke:#330055;stroke-width:2;stroke-miterlimit:10;}
	.st3{fill:none;}
	.st4{fill:#12002A;stroke:#330055;stroke-width:0.25;stroke-miterlimit:10;}
	.st5{font-family:'ShreeDev0714';}
	.st6{font-size:36px;}
</style>
<g>
	<g>
		<rect x="151" y="107.3" class="st0" width="52.1" height="315"/>
		<path class="st1" d="M218.3,437.5c-13-0.7-25.6-2.4-37.1-5c-11.5-2.7-21.5-6.2-30.3-9.7l-0.5-0.2v-0.3v-315v-0.5h0.5h52.1h0.5
			l0,0.5c3.5,52.5,7,106.4,9.7,161.7C216,324.3,217.7,380.7,218.3,437.5z M187.9,407.1c0.7-48.2,2.4-96.7,5-146.5
			c2.7-49.7,6.2-100.8,9.7-153.3l0.5,0.5H151l0.5-0.5v315l-0.5-0.5c8.7-3.5,15.9-7,21.8-9.7C178.8,409.5,183.5,407.7,187.9,407.1z"
			/>
	</g>
	<line class="st2" x1="156.7" y1="482.7" x2="272.7" y2="482.7"/>
	<line class="st2" x1="573.6" y1="482.7" x2="689.7" y2="482.7"/>
	<rect x="297.4" y="468.7" class="st3" width="266.8" height="46.7"/>
	<text transform="matrix(1 0 0 1 297.3718 495.2681)" class="st4 st5 st6">Web Developer</text>
	<g>
		<rect x="386.7" y="107.3" class="st0" width="52.1" height="315"/>
		<path class="st1" d="M401.9,407.1c4.4,0.7,9.1,2.4,15.1,5c5.9,2.7,13.2,6.2,21.8,9.7l-0.5,0.5v-315l0.5,0.5h-52.1l0.5-0.5
			c3.5,52.5,7,103.5,9.7,153.3C399.6,310.4,401.3,358.9,401.9,407.1z M371.5,437.5c0.7-56.8,2.4-113.2,5-168.5
			c2.7-55.3,6.2-109.2,9.7-161.7l0-0.5h0.5h52.1h0.5v0.5v315v0.3l-0.5,0.2c-8.7,3.5-18.8,7-30.3,9.7
			C397.2,435.1,384.5,436.8,371.5,437.5z"/>
	</g>
	<g>
		<rect x="469.5" y="107.3" class="st0" width="52.1" height="315"/>
		<path class="st1" d="M536.8,437.5c-13-0.7-25.6-2.4-37.1-5c-11.5-2.7-21.5-6.2-30.3-9.7l-0.5-0.2v-0.3v-315v-0.5h0.5h52.1h0.5
			l0,0.5c3.5,52.5,7,106.4,9.7,161.7C534.5,324.3,536.2,380.7,536.8,437.5z M506.4,407.1c0.7-48.2,2.4-96.7,5-146.5
			c2.7-49.7,6.2-100.8,9.7-153.3l0.5,0.5h-52.1l0.5-0.5v315l-0.5-0.5c8.7-3.5,15.9-7,21.8-9.7C497.3,409.5,502,407.7,506.4,407.1z"
			/>
	</g>
	<g>
		
			<rect x="555.6" y="379.5" transform="matrix(0.9964 -8.525601e-02 8.525601e-02 0.9964 -32.3689 54.5233)" class="st0" width="133.1" height="53.5"/>
		<path class="st1" d="M700,357.5c0.5,13.2-0.1,26.2-1.8,38c-1.6,11.9-4.3,22.5-7,31.7l-0.2,0.5l-0.3,0l-132.6,11.3l-0.5,0l0-0.5
			l-4.6-53.3l0-0.4l0.5-0.1c21.8-5.4,45-10.9,69.7-15.7C647.8,364.3,673.8,360.4,700,357.5z M672.3,390.4
			c-17.9,0.9-36.2,0.7-55.8-0.3c-19.6-1-40.6-2.7-62.9-4.3l0.5-0.5l4.6,53.3l-0.5-0.5l132.6-11.3l-0.5,0.5
			c-4.2-8.6-8.4-15.7-11.6-21.6C675.5,399.7,673.4,394.9,672.3,390.4z"/>
	</g>
	<g>
		
			<rect x="224.2" y="242.7" transform="matrix(0.9729 -0.231 0.231 0.9729 -54.3932 74.4612)" class="st0" width="133.1" height="53.5"/>
		<path class="st1" d="M360.6,209.8c2.4,13,3.7,25.9,3.8,37.9c0.1,12-0.9,22.8-2.3,32.4l-0.1,0.5l-0.3,0.1l-129.5,30.7l-0.5,0.1
			l-0.1-0.5l-12.4-52.1l-0.1-0.4l0.5-0.2c20.8-8.5,42.9-17.4,66.6-25.7C309.9,224.2,335,216.5,360.6,209.8z M338,246.4
			c-17.6,3.5-35.7,6-55.2,7.9c-19.5,1.9-40.5,3.3-62.9,5l0.4-0.6l12.4,52.1l-0.6-0.4l129.5-30.7l-0.4,0.6
			c-5.5-7.8-10.6-14.3-14.6-19.7C342.5,255.2,339.7,250.8,338,246.4z"/>
	</g>
</g>
</svg>
